<svg width="139" height="189" viewBox="0 0 139 189" fill="none" xmlns="http://www.w3.org/2000/svg">
<path d="M106.015 84.7617C97.3857 84.7617 64.6123 84.7617 54.5663 84.7617C48.9794 84.7617 43.5602 83.6677 38.4591 81.5101C33.5316 79.4259 29.1059 76.442 25.305 72.6413C21.5042 68.8405 18.5202 64.415 16.4359 59.4875C14.2783 54.3866 13.1843 48.9675 13.1843 43.3808C13.1843 37.7941 14.2783 32.375 16.4359 27.2741C18.5202 22.3467 21.5042 17.9211 25.305 14.1204C29.1059 10.3196 33.5316 7.33572 38.4591 5.25152C43.5602 3.09398 48.9794 2 54.5663 2C62.6889 2 70.5513 4.35145 77.3035 8.80014C83.8875 13.138 89.0761 19.2191 92.3084 26.386L92.7654 27.3993L93.7815 26.9485C97.6413 25.2362 101.757 24.3679 106.015 24.3679C114.081 24.3679 121.664 27.5091 127.368 33.2129C133.071 38.9165 136.212 46.4998 136.212 54.5658C136.212 62.6316 133.071 70.2145 127.368 75.9176C121.664 81.6208 114.081 84.7617 106.015 84.7617Z" fill="#EAEFFB" stroke="#707070" stroke-width="4"/>
<path d="M74.58 84.6021C67.833 84.6021 42.209 84.6021 34.3545 84.6021C29.9864 84.6021 25.7494 83.7467 21.7611 82.0599C17.9085 80.4304 14.4483 78.0974 11.4766 75.1258C8.50488 72.1541 6.17185 68.694 4.54227 64.8415C2.85535 60.8533 2 56.6164 2 52.2484C2 47.8805 2.85535 43.6435 4.54227 39.6554C6.17185 35.8029 8.50488 32.3427 11.4766 29.3711C14.4483 26.3995 17.9085 24.0665 21.7611 22.437C25.7494 20.7501 29.9864 19.8948 34.3545 19.8948C40.7052 19.8948 46.8524 21.7333 52.1317 25.2115C57.2794 28.603 61.3361 33.3575 63.8632 38.961L64.2206 39.7533L65.015 39.4008C68.0328 38.062 71.2509 37.3832 74.58 37.3832C80.8863 37.3832 86.8152 39.8391 91.2744 44.2986C95.7335 48.758 98.1893 54.687 98.1893 60.9934C98.1893 67.2997 95.7335 73.2284 91.2744 77.6874C86.8153 82.1464 80.8864 84.6021 74.58 84.6021Z" fill="#EAF1FB" stroke="#707070" stroke-width="4"/>
<path d="M106.084 110.205L103.947 109.007L105.591 108.577C106.11 108.442 106.419 107.92 106.28 107.416L106.027 106.501C105.888 105.997 105.351 105.696 104.832 105.832L100.355 106.999L96.3139 104.726L100.349 102.459L104.826 103.626C105.344 103.761 105.882 103.46 106.021 102.957L106.274 102.041C106.413 101.538 106.103 101.015 105.585 100.88L103.94 100.45L106.078 99.2525C106.546 98.9883 106.704 98.4109 106.438 97.9563L105.458 96.31C105.186 95.8555 104.592 95.7019 104.124 95.9599L101.986 97.1578L102.429 95.5606C102.568 95.0569 102.258 94.5347 101.74 94.3996L100.797 94.1539C100.279 94.0187 99.7414 94.3197 99.6023 94.8235L98.4007 99.1726L94.4294 101.396V96.6356L97.8253 93.3369C98.2174 92.956 98.2174 92.3294 97.8253 91.9486L97.1107 91.2544C96.7186 90.8736 96.0736 90.8736 95.6815 91.2544L94.4294 92.4646V89.9829C94.4294 89.4423 93.974 89 93.4175 89H91.3939C90.8374 89 90.3821 89.4423 90.3821 89.9829V92.4646L89.1363 91.2544C88.7442 90.8736 88.0992 90.8736 87.7071 91.2544L86.9862 91.9486C86.5878 92.3294 86.5878 92.956 86.9862 93.3369L90.3821 96.6356V101.396L86.4107 99.1726L85.2091 94.8235C85.07 94.3197 84.5325 94.0187 84.0139 94.1539L83.0717 94.3996C82.5531 94.5347 82.2433 95.0569 82.3824 95.5606L82.825 97.1578L80.6876 95.9599C80.2196 95.6958 79.6252 95.8555 79.3532 96.31L78.373 97.9502C78.1011 98.4048 78.2655 98.9822 78.7335 99.2463L80.871 100.444L79.2268 100.874C78.7019 101.009 78.392 101.532 78.5311 102.041L78.7841 102.957C78.9232 103.46 79.4607 103.761 79.9793 103.626L84.4566 102.459L88.4912 104.726L84.4566 106.993L79.9793 105.825C79.4607 105.69 78.9232 105.991 78.7841 106.495L78.5311 107.41C78.392 107.914 78.7019 108.436 79.2204 108.571L80.8646 109.001L78.7272 110.205C78.2592 110.469 78.1011 111.047 78.3667 111.501L79.3469 113.148C79.6188 113.602 80.2133 113.756 80.6813 113.498L82.8187 112.3L82.3761 113.897C82.2369 114.401 82.5468 114.923 83.0654 115.058L84.0076 115.304C84.5262 115.439 85.0637 115.138 85.2028 114.634L86.4044 110.285L90.3758 108.061V112.822L86.9798 116.121C86.5814 116.502 86.5814 117.128 86.9798 117.509L87.6944 118.203C88.0865 118.584 88.7315 118.584 89.1236 118.203L90.3694 116.993V119.469C90.3694 120.009 90.8247 120.452 91.3813 120.452H93.4049C93.9614 120.452 94.4167 120.009 94.4167 119.469V116.987L95.6625 118.197C96.0546 118.578 96.6996 118.578 97.0917 118.197L97.8063 117.503C98.1984 117.122 98.1984 116.496 97.8063 116.115L94.4294 112.816V108.055L98.4007 110.279L99.6023 114.628C99.7414 115.132 100.279 115.433 100.797 115.298L101.74 115.052C102.258 114.917 102.568 114.395 102.429 113.891L101.986 112.294L104.124 113.492C104.592 113.756 105.186 113.596 105.458 113.142L106.438 111.495C106.71 111.047 106.552 110.463 106.084 110.205Z" fill="#A0E3F6"/>
<path d="M60.6457 159.118L58.325 157.981L60.1101 157.573C60.6731 157.445 61.0096 156.95 60.8585 156.472L60.5839 155.604C60.4328 155.126 59.8492 154.84 59.2862 154.968L54.4251 156.076L50.0378 153.919L54.4183 151.769L59.2793 152.876C59.8423 153.004 60.4259 152.719 60.577 152.241L60.8516 151.373C61.0027 150.895 60.6663 150.399 60.1032 150.271L58.3181 149.863L60.6388 148.727C61.1469 148.476 61.3185 147.928 61.0301 147.497L59.9659 145.935C59.6707 145.504 59.0253 145.358 58.5172 145.603L56.1965 146.739L56.6772 145.224C56.8282 144.746 56.4918 144.251 55.9288 144.123L54.9058 143.89C54.3427 143.761 53.7591 144.047 53.6081 144.525L52.3036 148.651L47.9918 150.761V146.244L51.6788 143.114C52.1045 142.753 52.1045 142.159 51.6788 141.797L50.9029 141.139C50.4772 140.778 49.7769 140.778 49.3512 141.139L47.9918 142.287V139.932C47.9918 139.42 47.4974 139 46.8932 139H44.6961C44.0919 139 43.5976 139.42 43.5976 139.932V142.287L42.245 141.139C41.8193 140.778 41.119 140.778 40.6933 141.139L39.9106 141.797C39.478 142.159 39.478 142.753 39.9106 143.114L43.5976 146.244V150.761L39.2858 148.651L37.9813 144.525C37.8302 144.047 37.2466 143.761 36.6836 143.89L35.6606 144.123C35.0976 144.251 34.7611 144.746 34.9122 145.224L35.3928 146.739L33.0721 145.603C32.564 145.352 31.9187 145.504 31.6234 145.935L30.5592 147.491C30.264 147.922 30.4425 148.47 30.9506 148.721L33.2712 149.857L31.4861 150.265C30.9162 150.393 30.5798 150.889 30.7308 151.373L31.0055 152.241C31.1565 152.719 31.7401 153.004 32.3031 152.876L37.1642 151.769L41.5447 153.919L37.1642 156.07L32.3031 154.963C31.7401 154.834 31.1565 155.12 31.0055 155.598L30.7308 156.466C30.5798 156.944 30.9162 157.439 31.4792 157.568L33.2644 157.976L30.9437 159.118C30.4356 159.368 30.264 159.916 30.5523 160.347L31.6166 161.909C31.9118 162.341 32.5572 162.486 33.0653 162.242L35.3859 161.105L34.9053 162.62C34.7543 163.098 35.0907 163.594 35.6537 163.722L36.6767 163.955C37.2397 164.083 37.8233 163.798 37.9744 163.32L39.2789 159.194L43.5907 157.084V161.6L39.9037 164.73C39.4712 165.091 39.4712 165.686 39.9037 166.047L40.6796 166.706C41.1053 167.067 41.8056 167.067 42.2313 166.706L43.5838 165.558V167.906C43.5838 168.419 44.0782 168.839 44.6824 168.839H46.8795C47.4837 168.839 47.978 168.419 47.978 167.906V165.552L49.3306 166.7C49.7563 167.061 50.4566 167.061 50.8823 166.7L51.6582 166.041C52.0839 165.68 52.0839 165.086 51.6582 164.724L47.9918 161.595V157.078L52.3036 159.188L53.6081 163.314C53.7591 163.792 54.3427 164.077 54.9058 163.949L55.9288 163.716C56.4918 163.588 56.8282 163.092 56.6772 162.615L56.1965 161.099L58.5172 162.236C59.0253 162.486 59.6707 162.335 59.9659 161.904L61.0301 160.342C61.3254 159.916 61.1537 159.363 60.6457 159.118Z" fill="#A0E3F6"/>
<path d="M106.084 160.205L103.947 159.007L105.591 158.577C106.11 158.442 106.419 157.92 106.28 157.416L106.027 156.501C105.888 155.997 105.351 155.696 104.832 155.832L100.355 156.999L96.3139 154.726L100.349 152.459L104.826 153.626C105.344 153.761 105.882 153.46 106.021 152.957L106.274 152.041C106.413 151.538 106.103 151.015 105.585 150.88L103.94 150.45L106.078 149.252C106.546 148.988 106.704 148.411 106.438 147.956L105.458 146.31C105.186 145.855 104.592 145.702 104.124 145.96L101.986 147.158L102.429 145.561C102.568 145.057 102.258 144.535 101.74 144.4L100.797 144.154C100.279 144.019 99.7414 144.32 99.6023 144.823L98.4007 149.173L94.4294 151.396V146.636L97.8253 143.337C98.2174 142.956 98.2174 142.329 97.8253 141.949L97.1107 141.254C96.7186 140.874 96.0736 140.874 95.6815 141.254L94.4294 142.465V139.983C94.4294 139.442 93.974 139 93.4175 139H91.3939C90.8374 139 90.3821 139.442 90.3821 139.983V142.465L89.1363 141.254C88.7442 140.874 88.0992 140.874 87.7071 141.254L86.9862 141.949C86.5878 142.329 86.5878 142.956 86.9862 143.337L90.3821 146.636V151.396L86.4107 149.173L85.2091 144.823C85.07 144.32 84.5325 144.019 84.0139 144.154L83.0717 144.4C82.5531 144.535 82.2433 145.057 82.3824 145.561L82.825 147.158L80.6876 145.96C80.2196 145.696 79.6252 145.855 79.3532 146.31L78.373 147.95C78.1011 148.405 78.2655 148.982 78.7335 149.246L80.871 150.444L79.2268 150.874C78.7019 151.009 78.392 151.532 78.5311 152.041L78.7841 152.957C78.9232 153.46 79.4607 153.761 79.9793 153.626L84.4566 152.459L88.4912 154.726L84.4566 156.993L79.9793 155.825C79.4607 155.69 78.9232 155.991 78.7841 156.495L78.5311 157.41C78.392 157.914 78.7019 158.436 79.2204 158.571L80.8646 159.001L78.7272 160.205C78.2592 160.469 78.1011 161.047 78.3667 161.501L79.3469 163.148C79.6188 163.602 80.2133 163.756 80.6813 163.498L82.8187 162.3L82.3761 163.897C82.2369 164.401 82.5468 164.923 83.0654 165.058L84.0076 165.304C84.5262 165.439 85.0637 165.138 85.2028 164.634L86.4044 160.285L90.3758 158.061V162.822L86.9798 166.121C86.5814 166.502 86.5814 167.128 86.9798 167.509L87.6944 168.203C88.0865 168.584 88.7315 168.584 89.1236 168.203L90.3694 166.993V169.469C90.3694 170.009 90.8247 170.452 91.3813 170.452H93.4049C93.9614 170.452 94.4167 170.009 94.4167 169.469V166.987L95.6625 168.197C96.0546 168.578 96.6996 168.578 97.0917 168.197L97.8063 167.503C98.1984 167.122 98.1984 166.496 97.8063 166.115L94.4294 162.816V158.055L98.4007 160.279L99.6023 164.628C99.7414 165.132 100.279 165.433 100.797 165.298L101.74 165.052C102.258 164.917 102.568 164.395 102.429 163.891L101.986 162.294L104.124 163.492C104.592 163.756 105.186 163.596 105.458 163.142L106.438 161.495C106.71 161.047 106.552 160.463 106.084 160.205Z" fill="#A0E3F6"/>
<path d="M56.1795 116.205L54.042 115.007L55.6862 114.577C56.2048 114.442 56.5147 113.92 56.3755 113.416L56.1226 112.501C55.9835 111.997 55.4459 111.696 54.9274 111.832L50.4501 112.999L46.4091 110.726L50.4437 108.459L54.9211 109.626C55.4396 109.761 55.9771 109.46 56.1163 108.957L56.3692 108.041C56.5083 107.538 56.1985 107.015 55.6799 106.88L54.0357 106.45L56.1732 105.252C56.6411 104.988 56.7992 104.411 56.5336 103.956L55.5534 102.31C55.2815 101.855 54.6871 101.702 54.2191 101.96L52.0816 103.158L52.5243 101.561C52.6634 101.057 52.3536 100.535 51.835 100.4L50.8927 100.154C50.3742 100.019 49.8367 100.32 49.6975 100.823L48.496 105.173L44.5246 107.396V102.636L47.9205 99.3369C48.3126 98.956 48.3126 98.3294 47.9205 97.9486L47.2059 97.2544C46.8138 96.8736 46.1688 96.8736 45.7767 97.2544L44.5246 98.4646V95.9829C44.5246 95.4423 44.0693 95 43.5128 95H41.4891C40.9326 95 40.4773 95.4423 40.4773 95.9829V98.4646L39.2315 97.2544C38.8394 96.8736 38.1944 96.8736 37.8023 97.2544L37.0814 97.9486C36.683 98.3294 36.683 98.956 37.0814 99.3369L40.4773 102.636V107.396L36.5059 105.173L35.3044 100.823C35.1653 100.32 34.6277 100.019 34.1092 100.154L33.1669 100.4C32.6484 100.535 32.3385 101.057 32.4776 101.561L32.9203 103.158L30.7828 101.96C30.3149 101.696 29.7204 101.855 29.4485 102.31L28.4683 103.95C28.1964 104.405 28.3608 104.982 28.8287 105.246L30.9662 106.444L29.322 106.874C28.7971 107.009 28.4873 107.532 28.6264 108.041L28.8793 108.957C29.0185 109.46 29.556 109.761 30.0746 109.626L34.5519 108.459L38.5865 110.726L34.5519 112.993L30.0746 111.825C29.556 111.69 29.0185 111.991 28.8793 112.495L28.6264 113.41C28.4873 113.914 28.7971 114.436 29.3157 114.571L30.9599 115.001L28.8224 116.205C28.3545 116.469 28.1964 117.047 28.462 117.501L29.4422 119.148C29.7141 119.602 30.3085 119.756 30.7765 119.498L32.914 118.3L32.4713 119.897C32.3322 120.401 32.642 120.923 33.1606 121.058L34.1029 121.304C34.6214 121.439 35.1589 121.138 35.2981 120.634L36.4996 116.285L40.471 114.061V118.822L37.0751 122.121C36.6767 122.502 36.6767 123.128 37.0751 123.509L37.7897 124.203C38.1818 124.584 38.8268 124.584 39.2189 124.203L40.4647 122.993V125.469C40.4647 126.009 40.92 126.452 41.4765 126.452H43.5001C44.0566 126.452 44.512 126.009 44.512 125.469V122.987L45.7578 124.197C46.1498 124.578 46.7949 124.578 47.187 124.197L47.9016 123.503C48.2936 123.122 48.2936 122.496 47.9016 122.115L44.5246 118.816V114.055L48.496 116.279L49.6975 120.628C49.8367 121.132 50.3742 121.433 50.8927 121.298L51.835 121.052C52.3536 120.917 52.6634 120.395 52.5243 119.891L52.0816 118.294L54.2191 119.492C54.6871 119.756 55.2815 119.596 55.5534 119.142L56.5336 117.495C56.8056 117.047 56.6475 116.463 56.1795 116.205Z" fill="#A0E3F6"/>
</svg>
